<?xml version="1.0" encoding="utf-8"?>
<!-- Generator: Adobe Illustrator 28.0.0, SVG Export Plug-In . SVG Version: 6.00 Build 0)  -->
<svg version="1.1" id="Calque_1" xmlns="http://www.w3.org/2000/svg" xmlns:xlink="http://www.w3.org/1999/xlink" x="0px" y="0px"
	 viewBox="0 0 132.1 109.5" style="enable-background:new 0 0 132.1 109.5;" xml:space="preserve">
<style type="text/css">
	.st0{fill:#6B9868;}
	.st1{fill:#646DB2;}
	.st2{clip-path:url(#SVGID_00000065795529141859386100000011346173041486996409_);fill:#F2B998;}
	.st3{clip-path:url(#SVGID_00000057834153738085271690000001887104355453223043_);fill:#5B5373;}
	.st4{clip-path:url(#SVGID_00000183949034320300015700000000043578324179759235_);fill:#F2C029;}
	.st5{clip-path:url(#SVGID_00000013152398341316742520000009428059867664937088_);fill:#F2C029;}
	.st6{clip-path:url(#SVGID_00000054252020307537862030000008941126185349040785_);fill:#5B5373;}
	.st7{clip-path:url(#SVGID_00000145737806219416891230000007359999973105442478_);fill:#F2B998;}
	.st8{clip-path:url(#SVGID_00000119796936632162378740000009081895375802835881_);fill:#646DB2;}
	.st9{clip-path:url(#SVGID_00000144318543730666285090000015951103684877043386_);fill:#F2DB6C;}
	.st10{clip-path:url(#SVGID_00000142895387991118962140000007354321743015915650_);fill:#646DB2;}
	.st11{fill:#FFFFFF;}
	.st12{fill:#7782BF;}
	.st13{fill:#BB8A61;}
</style>
<g>
	<g>
		<path class="st0" d="M23.4-115C7.3-122-1.7-126.4-9-110.9c-7.3,15.6,2.1,34.7,18.7,35.5s26.4-5.4,26.7-11.9
			C36.3-87.3,39.4-108,23.4-115z M0.3-90.1c-1.7-7,0.3-17,1.6-23.6l3.9,0.6c-1.3,6.7-2.6,13.3-2.1,19.7C4-89.7,5.4-86.1,9-89.9
			l1.4,3.3C5.2-81.4,1.2-85.9,0.3-90.1z M14.6-87.5c-3.9-4.5-2-12.2,3.6-14.6c3.2-1.4,7.3-1.4,8.5,2.5c0.5,1.8,0.1,4-1.6,5.4
			c-2.2,1.9-5.7,2.3-8.5,1.9c0.6,3.8,4.7,4.5,8.3,2l2.5,3C23.9-84.3,17.9-83.6,14.6-87.5z"/>
		<path class="st0" d="M20.5-96.2c3.6-0.8,2.3-3-0.1-2.5c-1.5,0.3-2.5,1.3-3.3,2.6C18.2-95.9,19.4-95.9,20.5-96.2z"/>
		<path class="st0" d="M135.3-165.2c-19.5-0.5-22.9,16.9-21.8,33.4s18.3,16.6,27.7,12.6c9.5-4.1,20.8-14.9,20.8-27.2
			C162-158.8,154.8-164.7,135.3-165.2z M133.1-157.8c0.4,1.3,0.7,2.5,1,3.8l-3.9,0.8c-0.3-1.2-0.5-2.3-0.9-3.4L133.1-157.8z
			 M135.9-129.5c-1.3,2.7-3.5,5.1-6.3,5.8c-3.6,0.9-6.2-0.7-7.7-3.2c-1-1.6-1.4-3.6-1.4-5.5c0.1-3.8,2.4-7,5.7-9.1l1.9,3.5
			c-1.3,0.8-2.5,2-3.1,3.4c-0.9,2.1-1.1,6.3,2,6.9c2,0.4,4.3-1.4,5.2-3.4c2.7-5.8,0.6-15.8-0.6-18.5l3.8-1.4
			C137.1-145.1,138.9-136,135.9-129.5z M141.8-137.1c-3.9-4.5-2-12.2,3.6-14.6c3.2-1.4,7.3-1.4,8.5,2.5c0.5,1.8,0.1,4-1.6,5.4
			c-2.2,1.9-5.7,2.3-8.5,1.9c0.6,3.8,4.7,4.5,8.3,2l2.5,3C151.2-133.9,145.1-133.2,141.8-137.1z"/>
		<path class="st0" d="M147.7-145.8c3.6-0.8,2.3-3-0.1-2.5c-1.5,0.3-2.5,1.3-3.3,2.6C145.4-145.6,146.6-145.6,147.7-145.8z"/>
		<path class="st1" d="M-7.4-134.2c2-3,2.7-6.9,3.2-10.3c1.5-10.4,1-22.8-0.2-31.2l-0.3,0.1v-0.1l-22.3,0.3l0.1,6.2l16.5-0.4
			c0.8,5.8,1.3,16-0.3,24.7c-3.2,18.6-21.8,14.7-17.4-4.3c0.8-3.4,2.2-6.7,3.5-10.3l-6.1-2.2c-4.1,9.6-7.7,20.8-0.7,29.8
			C-25.6-124.6-14.3-123.9-7.4-134.2z"/>
		<path class="st1" d="M24.8-131.6l-4.2-5c-6,4.3-12.8,3-13.8-3.3c4.6,0.7,10.5-0.1,14.2-3.2c2.9-2.4,3.6-6,2.7-9.1
			c-2-6.6-8.8-6.6-14.2-4.3c-9.3,4.1-12.6,16.9-6,24.4C9-125.5,19.1-126.7,24.8-131.6z M13.2-150.8c4-0.8,6.2,2.9,0.1,4.2
			c-1.9,0.4-3.9,0.4-5.7,0.2C9-148.6,10.7-150.3,13.2-150.8z"/>
		<path class="st1" d="M51.3-133.8c0.3,1.8,0.7,4.5,1.4,6.3l6.4-1.6c-2.8-10.7-1.5-20.8-0.4-30.9l-6.7-0.6
			c-0.6,5.4-1.3,10.8-1.4,16.3c0,0.2,0,0.2,0,0.3c-4.1,10.2-13.8,13.9-16,3.8c-1.1-5.3-0.4-11,0.8-16l-6.6-1.1
			c-1.3,6.7-2,13.5-0.4,19.5C31.2-127.1,44-124.5,51.3-133.8z"/>
		<path class="st1" d="M81.6-130.2c0.9,4.6,2.1,8.9,3.7,13.4l6.3-2.3c-3.8-10.9-5.5-20.9-5.5-31c6.2-3.9,11-13.3,10.4-19
			c-0.9-9.7-9.8-8.8-13.6-1.5c-3.2,6-3.6,13.5-3.6,19.8c-5.9-2.5-11.5-0.3-14.9,4.1c-3.6,4.9-3.2,12.4,0.6,16.6
			C69.7-125.2,77.3-126.8,81.6-130.2z M87.2-161.3c0.4-2.6,1.2-5,2.3-7.2c0.4-0.6,0.6-0.4,0.6,0.1c0,3.8-1.1,7.5-3.4,10.2
			C86.8-159.2,87-160.3,87.2-161.3z M73.3-145.3c2.2-0.4,4.8,0.6,6.6,3.4c0.1,1.3,0.3,2.7,0.4,4c-1.1,1.8-3.6,4.1-6.2,4.6
			C67-132.1,66.8-144,73.3-145.3z"/>
		<path class="st1" d="M108.5-154.5l-6.5-0.9c-1.8,9.6-2.1,19.5-0.6,29.3l6.6-0.6C106.7-135.9,106.8-145.3,108.5-154.5z"/>
		<polygon class="st1" points="110.4,-164.6 103.9,-165.3 102.7,-158.6 109.3,-157.7 		"/>
		<path class="st1" d="M64.5-103.6l6.2-2.2c-0.4-1.6-1.1-3-2.1-4.4c-5.7-7.9-15.4-6.3-20.2,1.2c-3.7,5.9-4.1,14-3.7,20.7
			c-1.1,0-2.2,0.1-3.2,0.2l0.3,6.5c1.3,0,2.5-0.1,3.9-0.1c0,0.1,0,0.2,0.1,0.4c1.1,5.5,3,10.8,5.2,15.8l6-2.7
			c-1.9-4.5-3.6-8.9-4.6-13.6c3.9,0,7.6,0.1,11.4,0.3l0.3-6.6c-4.3-0.2-8.5-0.3-12.8-0.3c-0.3-5-0.4-12.2,2.3-16.8
			C57.2-111.1,62.4-109.4,64.5-103.6z"/>
		<path class="st1" d="M85.7-111.4c-7.6,0-12.4,7-14.3,13.4l6.3,1.8c0.6-2,1.4-3.7,2.3-5.1c2.9-4.6,8.1-4.3,10.3,0.3
			c1.2,2.6,1.4,5.8,1.4,8.4c-5.5-2-11.9-3-17.3-0.8c-8.1,3.2-8.2,11.9-2,16.4c2.5,1.8,5.6,2.7,8.6,2.9c4.6,0.4,8.8-0.3,12.8-1.7
			l4.1,0.4C98.2-85.5,102.3-111.4,85.7-111.4z M91.8-82.1c-3.2,1-6.3,1.7-9.4,1.5c-7.6-0.6-10.5-7.4-1-7.4c3.8-0.1,7.2,1,10.5,2.6
			C91.9-84.3,91.9-83.2,91.8-82.1z"/>
		<path class="st1" d="M104-103c-1.8,9.6-2.1,19.5-0.6,29.3l6.6-0.6c-1.2-9.2-1.1-18.6,0.6-27.7L104-103z"/>
		<polygon class="st1" points="104.8,-106.2 111.4,-105.3 112.5,-112.2 106,-112.9 		"/>
		<path class="st1" d="M134-94.6c-3.2-1.2-6.8-1.6-9.9-2.9c-6.5-2.4-3.4-6.5,2.2-6.2c3,0.2,6,1.6,7.9,3.4l4.7-4.8
			c-4.1-3.4-9.1-5.6-14.2-5.3c-4.8,0.3-9.3,2.5-10.7,7.4c-1.1,3.6,0.8,7,3.4,9.3c3.7,3.2,9.1,3.7,13.5,5.1c2.7,1,4.1,2.4,3.8,4
			c-0.7,3.6-6.4,4.8-9.3,3.9c-2.2-0.6-4.2-2.6-5.1-4.6l-6.1,2.7c1.7,3.8,5.2,6.9,9.2,8.2c4.3,1.3,8.8,0.7,12.5-1.7
			c1.7-1.1,3.4-2.8,4.5-5C143.3-87.3,139.5-92.5,134-94.6z"/>
	</g>
</g>
<g>
	<path d="M-143.6-291.9c0,0,3.5-23.2-14.5-31c-17.9-7.8-28.1-12.7-36.2,4.6c-8.1,17.4,2.3,38.8,20.8,39.7
		C-154.9-277.7-143.9-284.6-143.6-291.9z"/>
	<path d="M-26.5-327.6c-10.5,4.5-29.8,4.3-31-14.1s2.6-37.9,24.4-37.3s29.8,7.2,29.8,20.9C-3.3-344.2-15.9-332.1-26.5-327.6z"/>
	<text transform="matrix(1 0 0 1 -225.3101 -336.0691)" style="font-family:'Cheese-Sauce'; font-size:70.914px;">Jeudi</text>
	<g>
		<text transform="matrix(1 0 0 1 -139.472 -277.5104)" style="font-family:'Cheese-Sauce'; font-size:70.914px;">fais</text>
	</g>
	<g>
		<text transform="matrix(1 0 0 1 -50.5937 -344.0962)" class="st11" style="font-family:'Cheese-Sauce'; font-size:42.4382px;">je</text>
	</g>
	<g>
		<text transform="matrix(1 0 0 1 -186.2381 -288.6421)" class="st11" style="font-family:'Cheese-Sauce'; font-size:42.4382px;">le</text>
	</g>
</g>
<circle cx="123.2" cy="-383.1" r="27.9"/>
<circle cx="277.7" cy="-440.6" r="27.9"/>
<text transform="matrix(1 0 0 1 68.2383 -412.6491)" style="font-family:'Cheese-Sauce'; font-size:70.914px;">Jeudi</text>
<g>
	<text transform="matrix(1 0 0 1 154.0764 -354.0904)" style="font-family:'Cheese-Sauce'; font-size:70.914px;">fais</text>
</g>
<g>
	<text transform="matrix(1 0 0 1 256.9557 -432.677)" class="st11" style="font-family:'Cheese-Sauce'; font-size:42.4382px;">je</text>
</g>
<g>
	<text transform="matrix(1 0 0 1 108.3103 -369.2224)" class="st11" style="font-family:'Cheese-Sauce'; font-size:42.4382px;">le</text>
</g>
<g id="ks2nav_00000116200453433236937000000011695736334048347014_">
	
		<image style="overflow:visible;enable-background:new    ;" width="2181" height="884" id="ks2nav" xlink:href="4F7D1605646857E4.png"  transform="matrix(0.9994 0 0 0.9994 -1032.3693 1955.0248)">
	</image>
</g>
<g>
	<g>
		<defs>
			<rect id="SVGID_1_" x="-1034.3" y="913.3" width="2183.9" height="884.6"/>
		</defs>
		<clipPath id="SVGID_00000127025780470391054800000003383658527006084227_">
			<use xlink:href="#SVGID_1_"  style="overflow:visible;"/>
		</clipPath>
		<path style="clip-path:url(#SVGID_00000127025780470391054800000003383658527006084227_);fill:#F2B998;" d="M-1249.6,1548.7
			c0,0,82.4-398,947.1-271.8s1199.6,293.7,1603.1,98.8c0-428.2,0-463.9,0-463.9h-2528.2L-1249.6,1548.7z"/>
	</g>
	<g>
		<defs>
			<rect id="SVGID_00000076579806646935875640000012597437884202547375_" x="-1034.3" y="913.3" width="2183.9" height="884.6"/>
		</defs>
		<clipPath id="SVGID_00000183230808824056837780000006209067335815340472_">
			<use xlink:href="#SVGID_00000076579806646935875640000012597437884202547375_"  style="overflow:visible;"/>
		</clipPath>
		<path style="clip-path:url(#SVGID_00000183230808824056837780000006209067335815340472_);fill:#5B5373;" d="M-1167.2,1301.6
			c0,0,529.8-145.5,903.1-52.2s1111.8,568.3,1174.9,669.9c-612.2,0-2034.1,0-2034.1,0L-1167.2,1301.6z"/>
	</g>
	<g>
		<defs>
			<rect id="SVGID_00000011711391414535040600000001566128308137227922_" x="-1034.3" y="913.3" width="2183.9" height="884.6"/>
		</defs>
		<clipPath id="SVGID_00000032630734474182830050000001485928726439559333_">
			<use xlink:href="#SVGID_00000011711391414535040600000001566128308137227922_"  style="overflow:visible;"/>
		</clipPath>
		<path style="clip-path:url(#SVGID_00000032630734474182830050000001485928726439559333_);fill:#F2C029;" d="M1218.3,1180.9
			c0,0-1238,52.2-1295.7,131.8c277.3,145.5,1021.2,661.6,1021.2,661.6l340.4-22L1218.3,1180.9z"/>
	</g>
</g>
<g>
	<g>
		<defs>
			<rect id="SVGID_00000082340564069451684680000015446587513679769000_" x="883.9" y="-205.9" width="2183.9" height="884.6"/>
		</defs>
		<clipPath id="SVGID_00000153669797927690025900000014329936115450370432_">
			<use xlink:href="#SVGID_00000082340564069451684680000015446587513679769000_"  style="overflow:visible;"/>
		</clipPath>
		<path style="clip-path:url(#SVGID_00000153669797927690025900000014329936115450370432_);fill:#F2C029;" d="M771,458.2
			c0,0,306.5,110.7,510-226.6s484.2-200.9,685.1-394.1S1337.7-505,1337.7-505L467.1-360.8L771,458.2z"/>
	</g>
	<g>
		<defs>
			<rect id="SVGID_00000171706206909166175600000018036992975295314090_" x="883.9" y="-205.9" width="2183.9" height="884.6"/>
		</defs>
		<clipPath id="SVGID_00000101797127109372277210000016635237323054130848_">
			<use xlink:href="#SVGID_00000171706206909166175600000018036992975295314090_"  style="overflow:visible;"/>
		</clipPath>
		<path style="clip-path:url(#SVGID_00000101797127109372277210000016635237323054130848_);fill:#5B5373;" d="M825.1,174.9
			c0,0,391.5,244.7,790.7,164.8s502.2,2.6,826.7,133.9s744.3-200.9,855.1-206c110.7-5.2-43.8,481.6-43.8,481.6l-2487.9-7.7
			L825.1,174.9z"/>
	</g>
	<g>
		<defs>
			<rect id="SVGID_00000123409364378980862060000007075872666048801428_" x="883.9" y="-205.9" width="2183.9" height="884.6"/>
		</defs>
		<clipPath id="SVGID_00000091701568838748892150000006731257407486596281_">
			<use xlink:href="#SVGID_00000123409364378980862060000007075872666048801428_"  style="overflow:visible;"/>
		</clipPath>
		<path style="clip-path:url(#SVGID_00000091701568838748892150000006731257407486596281_);fill:#F2B998;" d="M1404.6-538.5
			c0,0,296.2,690.2,883.4,610.4s762.4,708.3,762.4,708.3h285.9v-1159L1404.6-538.5z"/>
	</g>
	<g>
		<defs>
			<rect id="SVGID_00000008126953537830558470000007425706164847157127_" x="883.9" y="-205.9" width="2183.9" height="884.6"/>
		</defs>
		<clipPath id="SVGID_00000049918162502723279620000004439553036917952678_">
			<use xlink:href="#SVGID_00000008126953537830558470000007425706164847157127_"  style="overflow:visible;"/>
		</clipPath>
		<path style="clip-path:url(#SVGID_00000049918162502723279620000004439553036917952678_);fill:#646DB2;" d="M1296.2,429.5
			c-102.1-141.7-194.5-98.4-116.2-221.3s418-395.7,605.8-313s261.5,498.5,69.3,516.4C1662.8,429.5,1446,637.4,1296.2,429.5z"/>
	</g>
	<g>
		<defs>
			<rect id="SVGID_00000020379994918705459920000015197928240257838988_" x="883.9" y="-205.9" width="2183.9" height="884.6"/>
		</defs>
		<clipPath id="SVGID_00000036234246782574010900000002778844406466781073_">
			<use xlink:href="#SVGID_00000020379994918705459920000015197928240257838988_"  style="overflow:visible;"/>
		</clipPath>
		<path style="clip-path:url(#SVGID_00000036234246782574010900000002778844406466781073_);fill:#F2DB6C;" d="M1924.3-31
			c0,0-84.9-15.6-64.8,163.2s-60.4,321.9,252.6,328.6s424.7-67.1,424.7-190S2409.4-433.4,1924.3-31z"/>
	</g>
	<g>
		<defs>
			<rect id="SVGID_00000012458398864581610600000015883642819625966508_" x="883.9" y="-205.9" width="2183.9" height="884.6"/>
		</defs>
		<clipPath id="SVGID_00000129897382700431698940000014277714113479097755_">
			<use xlink:href="#SVGID_00000012458398864581610600000015883642819625966508_"  style="overflow:visible;"/>
		</clipPath>
		<path style="clip-path:url(#SVGID_00000129897382700431698940000014277714113479097755_);fill:#646DB2;" d="M3144.9,512.2
			c0,0-283.9,105.1-507.5,73.8s-344.3-89.4-330.8-241.4S2264.1-42.2,2565.9,45S3138.2,284.2,3144.9,512.2z"/>
	</g>
</g>
<g>
	<g>
		<path class="st11" d="M-899.8,1068.8c-16.1-7-25.1-11.4-32.4,4.1s2.1,34.7,18.7,35.5c16.6,0.8,26.4-5.4,26.7-11.9
			C-886.8,1096.5-883.7,1075.8-899.8,1068.8z M-922.9,1093.7c-1.7-7,0.3-17,1.6-23.6l3.9,0.6c-1.3,6.7-2.6,13.3-2.1,19.7
			c0.3,3.7,1.7,7.3,5.3,3.5l1.4,3.3C-918,1102.3-921.9,1097.9-922.9,1093.7z M-908.6,1096.3c-3.9-4.5-2-12.2,3.6-14.6
			c3.2-1.4,7.3-1.4,8.5,2.5c0.5,1.8,0.1,4-1.6,5.4c-2.2,1.9-5.7,2.3-8.5,1.9c0.6,3.8,4.7,4.5,8.3,2l2.5,3
			C-899.2,1099.5-905.3,1100.2-908.6,1096.3z"/>
		<path class="st11" d="M-902.7,1087.6c3.6-0.8,2.3-3-0.1-2.5c-1.5,0.3-2.5,1.3-3.3,2.6C-905,1087.8-903.8,1087.8-902.7,1087.6z"/>
		<path class="st11" d="M-787.9,1018.6c-19.5-0.5-22.9,16.9-21.8,33.4s18.3,16.6,27.7,12.6c9.5-4.1,20.8-14.9,20.8-27.2
			C-761.2,1025-768.4,1019.1-787.9,1018.6z M-790.1,1026c0.4,1.3,0.7,2.5,1,3.8l-3.9,0.8c-0.3-1.2-0.5-2.3-0.9-3.4L-790.1,1026z
			 M-787.3,1054.3c-1.3,2.7-3.5,5.1-6.3,5.8c-3.6,0.9-6.2-0.7-7.7-3.2c-1-1.6-1.4-3.6-1.4-5.5c0.1-3.8,2.4-7,5.7-9.1l1.9,3.5
			c-1.3,0.8-2.5,2-3.1,3.4c-0.9,2.1-1.1,6.3,2,6.9c2,0.4,4.3-1.4,5.2-3.4c2.7-5.8,0.6-15.8-0.6-18.5l3.8-1.4
			C-786.1,1038.7-784.3,1047.7-787.3,1054.3z M-781.4,1046.7c-3.9-4.5-2-12.2,3.6-14.6c3.2-1.4,7.3-1.4,8.5,2.5
			c0.5,1.8,0.1,4-1.6,5.4c-2.2,1.9-5.7,2.3-8.5,1.9c0.6,3.8,4.7,4.5,8.3,2l2.5,3C-772,1049.9-778.1,1050.5-781.4,1046.7z"/>
		<path class="st11" d="M-775.5,1037.9c3.6-0.8,2.3-3-0.1-2.5c-1.5,0.3-2.5,1.3-3.3,2.6C-777.8,1038.2-776.6,1038.2-775.5,1037.9z"
			/>
		<path class="st1" d="M-930.6,1049.5c2-3,2.7-6.9,3.2-10.3c1.5-10.4,1-22.8-0.2-31.2l-0.3,0.1v-0.1l-22.3,0.3l0.1,6.2l16.5-0.4
			c0.8,5.8,1.3,16-0.3,24.7c-3.2,18.6-21.8,14.7-17.4-4.3c0.8-3.4,2.2-6.7,3.5-10.3l-6.1-2.2c-4.1,9.6-7.7,20.8-0.7,29.8
			C-948.7,1059.1-937.5,1059.9-930.6,1049.5z"/>
		<path class="st1" d="M-898.4,1052.1l-4.2-5c-6,4.3-12.8,3-13.8-3.3c4.6,0.7,10.5-0.1,14.2-3.2c2.9-2.4,3.6-6,2.7-9.1
			c-2-6.6-8.8-6.6-14.2-4.3c-9.3,4.1-12.6,16.9-6,24.4C-914.2,1058.2-904.1,1057.1-898.4,1052.1z M-910,1033c4-0.8,6.2,2.9,0.1,4.2
			c-1.9,0.4-3.9,0.4-5.7,0.2C-914.2,1035.2-912.4,1033.5-910,1033z"/>
		<path class="st1" d="M-871.9,1050c0.3,1.8,0.7,4.5,1.4,6.3l6.4-1.6c-2.8-10.7-1.5-20.8-0.4-30.9l-6.7-0.6
			c-0.6,5.4-1.3,10.8-1.4,16.3c0,0.2,0,0.2,0,0.3c-4.1,10.2-13.8,13.9-16,3.8c-1.1-5.3-0.4-11,0.8-16l-6.6-1.1
			c-1.3,6.7-2,13.5-0.4,19.5C-892,1056.7-879.2,1059.3-871.9,1050z"/>
		<path class="st1" d="M-841.5,1053.5c0.9,4.6,2.1,8.9,3.7,13.4l6.3-2.3c-3.8-10.9-5.5-20.9-5.5-31c6.2-3.9,11-13.3,10.4-19
			c-0.9-9.7-9.8-8.8-13.6-1.5c-3.2,6-3.6,13.5-3.6,19.8c-5.9-2.5-11.5-0.3-14.9,4.1c-3.6,4.9-3.2,12.4,0.6,16.6
			C-853.5,1058.6-845.9,1057-841.5,1053.5z M-836,1022.5c0.4-2.6,1.2-5,2.3-7.2c0.4-0.6,0.6-0.4,0.6,0.1c0,3.8-1.1,7.5-3.4,10.2
			C-836.3,1024.5-836.2,1023.5-836,1022.5z M-849.9,1038.5c2.2-0.4,4.8,0.6,6.6,3.4c0.1,1.3,0.3,2.7,0.4,4c-1.1,1.8-3.6,4.1-6.2,4.6
			C-856.1,1051.7-856.3,1039.8-849.9,1038.5z"/>
		<path class="st1" d="M-814.7,1029.3l-6.5-0.9c-1.8,9.6-2.1,19.5-0.6,29.3l6.6-0.6C-816.5,1047.8-816.4,1038.4-814.7,1029.3z"/>
		<polygon class="st1" points="-812.7,1019.2 -819.3,1018.5 -820.5,1025.2 -813.9,1026.1 		"/>
		<path class="st1" d="M-858.7,1080.1l6.2-2.2c-0.4-1.6-1.1-3-2.1-4.4c-5.7-7.9-15.4-6.3-20.2,1.2c-3.7,5.9-4.1,14-3.7,20.7
			c-1.1,0-2.2,0.1-3.2,0.2l0.3,6.5c1.3,0,2.5-0.1,3.9-0.1c0,0.1,0,0.2,0.1,0.4c1.1,5.5,3,10.8,5.2,15.8l6-2.7
			c-1.9-4.5-3.6-8.9-4.6-13.6c3.9,0,7.6,0.1,11.4,0.3l0.3-6.6c-4.3-0.2-8.5-0.3-12.8-0.3c-0.3-5-0.4-12.2,2.3-16.8
			C-866,1072.7-860.8,1074.4-858.7,1080.1z"/>
		<path class="st1" d="M-837.5,1072.4c-7.6,0-12.4,7-14.3,13.4l6.3,1.8c0.6-2,1.4-3.7,2.3-5.1c2.9-4.6,8.1-4.3,10.3,0.3
			c1.2,2.6,1.4,5.8,1.4,8.4c-5.5-2-11.9-3-17.3-0.8c-8.1,3.2-8.2,11.9-2,16.4c2.5,1.8,5.6,2.7,8.6,2.9c4.6,0.4,8.8-0.3,12.8-1.7
			l4.1,0.4C-825,1098.3-820.9,1072.4-837.5,1072.4z M-831.4,1101.6c-3.2,1-6.3,1.7-9.4,1.5c-7.6-0.6-10.5-7.4-1-7.4
			c3.8-0.1,7.2,1,10.5,2.6C-831.3,1099.5-831.3,1100.6-831.4,1101.6z"/>
		<path class="st1" d="M-819.2,1080.8c-1.8,9.6-2.1,19.5-0.6,29.3l6.6-0.6c-1.2-9.2-1.1-18.6,0.6-27.7L-819.2,1080.8z"/>
		<polygon class="st1" points="-818.4,1077.6 -811.8,1078.5 -810.7,1071.6 -817.2,1070.9 		"/>
		<path class="st1" d="M-789.2,1089.1c-3.2-1.2-6.8-1.6-9.9-2.9c-6.5-2.4-3.4-6.5,2.2-6.2c3,0.2,6,1.6,7.9,3.4l4.7-4.8
			c-4.1-3.4-9.1-5.6-14.2-5.3c-4.8,0.3-9.3,2.5-10.7,7.4c-1.1,3.6,0.8,7,3.4,9.3c3.7,3.2,9.1,3.7,13.5,5.1c2.7,1,4.1,2.4,3.8,4
			c-0.7,3.6-6.4,4.8-9.3,3.9c-2.2-0.6-4.2-2.6-5.1-4.6l-6.1,2.7c1.7,3.8,5.2,6.9,9.2,8.2c4.3,1.3,8.8,0.7,12.5-1.7
			c1.7-1.1,3.4-2.8,4.5-5C-779.9,1096.5-783.6,1091.2-789.2,1089.1z"/>
	</g>
</g>
<g>
	<g>
		<path class="st11" d="M23.4,453.1c-16.1-7-25.1-11.4-32.4,4.1s2.1,34.7,18.7,35.5c16.6,0.8,26.4-5.4,26.7-11.9
			C36.3,480.8,39.4,460.1,23.4,453.1z M0.3,478.1c-1.7-7,0.3-17,1.6-23.6l3.9,0.6c-1.3,6.7-2.6,13.3-2.1,19.7
			c0.3,3.7,1.7,7.3,5.3,3.5l1.4,3.3C5.2,486.7,1.2,482.3,0.3,478.1z M14.6,480.7c-3.9-4.5-2-12.2,3.6-14.6c3.2-1.4,7.3-1.4,8.5,2.5
			c0.5,1.8,0.1,4-1.6,5.4c-2.2,1.9-5.7,2.3-8.5,1.9c0.6,3.8,4.7,4.5,8.3,2l2.5,3C23.9,483.9,17.9,484.5,14.6,480.7z"/>
		<path class="st11" d="M20.5,471.9c3.6-0.8,2.3-3-0.1-2.5c-1.5,0.3-2.5,1.3-3.3,2.6C18.2,472.2,19.4,472.2,20.5,471.9z"/>
		<path class="st11" d="M135.3,402.9c-19.5-0.5-22.9,16.9-21.8,33.4s18.3,16.6,27.7,12.6c9.5-4.1,20.8-14.9,20.8-27.2
			C162,409.4,154.8,403.5,135.3,402.9z M133.1,410.3c0.4,1.3,0.7,2.5,1,3.8l-3.9,0.8c-0.3-1.2-0.5-2.3-0.9-3.4L133.1,410.3z
			 M135.9,438.6c-1.3,2.7-3.5,5.1-6.3,5.8c-3.6,0.9-6.2-0.7-7.7-3.2c-1-1.6-1.4-3.6-1.4-5.5c0.1-3.8,2.4-7,5.7-9.1l1.9,3.5
			c-1.3,0.8-2.5,2-3.1,3.4c-0.9,2.1-1.1,6.3,2,6.9c2,0.4,4.3-1.4,5.2-3.4c2.7-5.8,0.6-15.8-0.6-18.5l3.8-1.4
			C137.1,423,138.9,432.1,135.9,438.6z M141.8,431c-3.9-4.5-2-12.2,3.6-14.6c3.2-1.4,7.3-1.4,8.5,2.5c0.5,1.8,0.1,4-1.6,5.4
			c-2.2,1.9-5.7,2.3-8.5,1.9c0.6,3.8,4.7,4.5,8.3,2l2.5,3C151.2,434.2,145.1,434.9,141.8,431z"/>
		<path class="st11" d="M147.7,422.3c3.6-0.8,2.3-3-0.1-2.5c-1.5,0.3-2.5,1.3-3.3,2.6C145.4,422.6,146.6,422.6,147.7,422.3z"/>
		<path class="st1" d="M-7.4,433.9c2-3,2.7-6.9,3.2-10.3c1.5-10.4,1-22.8-0.2-31.2h-0.2v-0.1l-22.4,0.4l0.1,6.2l16.5-0.4
			c0.8,5.8,1.3,16-0.3,24.7c-3.2,18.6-21.8,14.6-17.3-4.3c0.8-3.4,2.2-6.7,3.5-10.3l-6.1-2.2c-4.1,9.6-7.7,20.8-0.7,29.8
			C-25.6,443.5-14.3,444.3-7.4,433.9z"/>
		<path class="st1" d="M24.8,436.5l-4.2-5c-6,4.3-12.8,3-13.8-3.3c4.6,0.7,10.5-0.1,14.2-3.2c2.9-2.4,3.6-6,2.7-9.1
			c-2-6.6-8.8-6.6-14.2-4.3c-9.3,4.1-12.6,16.9-6,24.4C9,442.6,19.1,441.5,24.8,436.5z M13.2,417.4c4-0.8,6.2,2.9,0.1,4.2
			c-1.9,0.4-3.9,0.4-5.7,0.2C9,419.6,10.7,417.9,13.2,417.4z"/>
		<path class="st1" d="M51.3,434.4c0.3,1.8,0.7,4.5,1.4,6.3l6.4-1.6c-2.8-10.7-1.5-20.8-0.4-30.9l-6.7-0.6
			c-0.6,5.4-1.3,10.8-1.4,16.3c0,0.2,0,0.2,0,0.3c-4.1,10.2-13.8,13.9-16,3.8c-1.1-5.3-0.4-11,0.8-16l-6.6-1.1
			c-1.3,6.7-2,13.5-0.4,19.5C31.2,441.1,44,443.7,51.3,434.4z"/>
		<path class="st1" d="M81.6,437.9c0.9,4.6,2.1,8.9,3.7,13.4l6.3-2.3c-3.8-10.9-5.5-20.9-5.5-31c6.2-3.9,11-13.3,10.4-19
			c-0.9-9.7-9.8-8.8-13.6-1.5c-3.2,6-3.6,13.5-3.6,19.8c-5.9-2.5-11.5-0.3-14.9,4.1c-3.6,4.9-3.2,12.4,0.6,16.6
			C69.7,443,77.3,441.3,81.6,437.9z M87.2,406.8c0.4-2.6,1.2-5,2.3-7.2c0.4-0.6,0.6-0.4,0.6,0.1c0,3.8-1.1,7.5-3.4,10.2
			C86.8,408.9,87,407.8,87.2,406.8z M73.3,422.9c2.2-0.4,4.8,0.6,6.6,3.4c0.1,1.3,0.3,2.7,0.4,4c-1.1,1.8-3.6,4.1-6.2,4.6
			C67,436.1,66.8,424.1,73.3,422.9z"/>
		<path class="st1" d="M108.5,413.7l-6.5-0.9c-1.8,9.6-2.1,19.5-0.6,29.3l6.6-0.6C106.7,432.2,106.8,422.8,108.5,413.7z"/>
		<polygon class="st1" points="110.4,403.6 103.9,402.8 102.7,409.5 109.3,410.4 		"/>
		<path class="st1" d="M64.5,464.5l6.2-2.2c-0.4-1.6-1.1-3-2.1-4.4c-5.7-7.9-15.4-6.3-20.2,1.2c-3.7,5.9-4.1,14-3.7,20.7
			c-1.1,0-2.2,0.1-3.2,0.2l0.3,6.5c1.3,0,2.5-0.1,3.9-0.1c0,0.1,0,0.2,0.1,0.4c1.1,5.5,3,10.8,5.2,15.8l6-2.7
			c-1.9-4.5-3.6-8.9-4.6-13.6c3.9,0,7.6,0.1,11.4,0.3l0.3-6.6c-4.3-0.2-8.5-0.3-12.8-0.3c-0.3-5-0.4-12.2,2.3-16.8
			C57.2,457.1,62.4,458.7,64.5,464.5z"/>
		<path class="st1" d="M85.7,456.8c-7.6,0-12.4,7-14.3,13.4l6.3,1.8c0.6-2,1.4-3.7,2.3-5.1c2.9-4.6,8.1-4.3,10.3,0.3
			c1.2,2.6,1.4,5.8,1.4,8.4c-5.5-2-11.9-3-17.3-0.8c-8.1,3.2-8.2,11.9-2,16.4c2.5,1.8,5.6,2.7,8.6,2.9c4.6,0.4,8.8-0.3,12.8-1.7
			l4.1,0.4C98.2,482.6,102.3,456.8,85.7,456.8z M91.8,486c-3.2,1-6.3,1.7-9.4,1.5c-7.6-0.6-10.5-7.4-1-7.4c3.8-0.1,7.2,1,10.5,2.6
			C91.9,483.8,91.9,484.9,91.8,486z"/>
		<path class="st1" d="M104,465.2c-1.8,9.6-2.1,19.5-0.6,29.3l6.6-0.6c-1.2-9.2-1.1-18.6,0.6-27.7L104,465.2z"/>
		<polygon class="st1" points="104.8,462 111.4,462.8 112.5,456 106,455.2 		"/>
		<path class="st1" d="M134,473.5c-3.2-1.2-6.8-1.6-9.9-2.9c-6.5-2.4-3.4-6.5,2.2-6.2c3,0.2,6,1.6,7.9,3.4l4.7-4.8
			c-4.1-3.4-9.1-5.6-14.2-5.3c-4.8,0.3-9.3,2.5-10.7,7.4c-1.1,3.6,0.8,7,3.4,9.3c3.7,3.2,9.1,3.7,13.5,5.1c2.7,1,4.1,2.4,3.8,4
			c-0.7,3.6-6.4,4.8-9.3,3.9c-2.2-0.6-4.2-2.6-5.1-4.6l-6.1,2.7c1.7,3.8,5.2,6.9,9.2,8.2c4.3,1.3,8.8,0.7,12.5-1.7
			c1.7-1.1,3.4-2.8,4.5-5C143.3,480.9,139.5,475.6,134,473.5z"/>
	</g>
</g>
<g>
	<g>
		<g>
			<path class="st11" d="M39.3,42.3c-10.8-4.7-16.8-7.6-21.7,2.8C12.8,55.5,19,68.3,30.1,68.8c11.1,0.5,17.7-3.6,17.9-8
				C48,60.9,50,47,39.3,42.3z M23.8,59c-1.1-4.7,0.2-11.4,1-15.8l2.6,0.4c-0.8,4.5-1.8,8.9-1.4,13.2c0.2,2.5,1.1,4.9,3.6,2.3
				l0.9,2.2C27.1,64.8,24.5,61.8,23.8,59z M33.4,60.8c-2.6-3-1.3-8.2,2.4-9.8c2.2-0.9,4.9-0.9,5.7,1.7c0.4,1.2,0.1,2.7-1.1,3.6
				c-1.5,1.2-3.8,1.6-5.7,1.3c0.4,2.5,3.1,3,5.5,1.3l1.7,2C39.7,62.9,35.6,63.3,33.4,60.8z"/>
			<path class="st11" d="M37.4,54.9c2.4-0.5,1.6-2-0.1-1.7c-1,0.2-1.7,0.9-2.2,1.8C35.8,55.1,36.6,55.1,37.4,54.9z"/>
			<path class="st11" d="M114.2,8.7c-13.1-0.3-15.3,11.3-14.6,22.3s12.3,11.1,18.6,8.4c6.4-2.7,13.9-10,13.9-18.2
				C132.1,13,127.2,9.1,114.2,8.7z M112.7,13.7c0.3,0.8,0.5,1.7,0.7,2.5l-2.6,0.5c-0.2-0.8-0.4-1.6-0.6-2.3L112.7,13.7z M114.6,32.6
				c-0.8,1.8-2.3,3.4-4.2,3.9c-2.4,0.6-4.2-0.5-5.2-2.1c-0.6-1.1-1-2.4-0.9-3.7c0.1-2.5,1.6-4.7,3.8-6.1l1.3,2.4
				c-0.9,0.5-1.7,1.3-2.1,2.3c-0.6,1.4-0.8,4.2,1.3,4.7c1.3,0.3,2.8-0.9,3.5-2.3c1.8-3.9,0.4-10.6-0.4-12.4l2.5-0.9
				C115.4,22.2,116.6,28.2,114.6,32.6z M118.5,27.5c-2.6-3-1.3-8.2,2.4-9.8c2.2-0.9,4.9-0.9,5.7,1.7c0.4,1.2,0.1,2.7-1.1,3.6
				c-1.5,1.2-3.8,1.6-5.7,1.3c0.4,2.5,3.1,3,5.5,1.3l1.7,2C124.8,29.7,120.8,30.1,118.5,27.5z"/>
			<path class="st11" d="M122.5,21.7c2.4-0.5,1.6-2-0.1-1.7c-1,0.2-1.7,0.9-2.2,1.8C121,21.9,121.7,21.9,122.5,21.7z"/>
			<path class="st12" d="M18.7,29.5c1.3-2,1.8-4.6,2.2-6.9c1-7,0.6-15.2-0.1-20.9l-0.2,0v0l-15,0.2l0,4.2l11-0.3
				c0.6,3.9,0.8,10.7-0.2,16.5c-2.2,12.4-14.6,9.8-11.6-2.9c0.5-2.3,1.4-4.5,2.3-6.9L3.1,11C0.4,17.5-2,25,2.7,31
				C6.5,35.9,14.1,36.4,18.7,29.5z"/>
			<path class="st12" d="M40.2,31.2l-2.8-3.4c-4,2.8-8.6,2-9.3-2.2c3.1,0.5,7.1,0,9.5-2.1c1.9-1.6,2.4-4,1.8-6.1
				C38.1,13,33.6,13,30,14.6c-6.2,2.7-8.5,11.3-4,16.4C29.6,35.3,36.4,34.5,40.2,31.2z M32.5,18.4c2.7-0.6,4.1,1.9,0.1,2.8
				c-1.3,0.3-2.6,0.3-3.8,0.1C29.6,19.9,30.8,18.7,32.5,18.4z"/>
			<path class="st12" d="M58,29.8c0.2,1.2,0.5,3,0.9,4.2l4.3-1.1c-1.9-7.2-1-13.9-0.3-20.7l-4.5-0.4c-0.4,3.6-0.9,7.2-0.9,10.9
				c0,0.1,0,0.1,0,0.2c-2.8,6.8-9.3,9.3-10.7,2.5c-0.7-3.5-0.3-7.3,0.5-10.7l-4.4-0.8c-0.9,4.5-1.4,9-0.3,13.1
				C44.5,34.3,53.1,36,58,29.8z"/>
			<path class="st12" d="M78.3,32.1c0.6,3.1,1.4,6,2.5,9l4.2-1.5c-2.5-7.3-3.7-14-3.7-20.8c4.2-2.6,7.4-8.9,7-12.7
				c-0.6-6.5-6.5-5.9-9.1-1c-2.1,4-2.4,9-2.4,13.3c-4-1.7-7.7-0.2-9.9,2.7c-2.4,3.3-2.1,8.3,0.4,11.1C70.3,35.5,75.4,34.4,78.3,32.1
				z M82,11.3c0.3-1.7,0.8-3.4,1.6-4.8c0.3-0.4,0.4-0.3,0.4,0c0,2.5-0.8,5-2.3,6.8C81.8,12.7,81.9,12,82,11.3z M72.7,22.1
				c1.5-0.3,3.2,0.4,4.4,2.3c0,0.8,0.2,1.8,0.3,2.7c-0.7,1.2-2.4,2.7-4.1,3.1C68.5,30.9,68.4,22.9,72.7,22.1z"/>
			<path class="st12" d="M96.3,15.9l-4.4-0.6c-1.2,6.5-1.4,13.1-0.4,19.6l4.4-0.4C95.1,28.3,95.1,22,96.3,15.9z"/>
			<polygon class="st12" points="97.6,9.1 93.2,8.6 92.4,13.1 96.8,13.7 			"/>
			<path class="st12" d="M66.8,49.9l4.1-1.4c-0.3-1.1-0.8-2-1.4-3c-3.8-5.3-10.3-4.2-13.6,0.8c-2.5,4-2.8,9.4-2.5,13.8
				c-0.8,0-1.5,0-2.2,0.1l0.2,4.3c0.9,0,1.7,0,2.6,0c0,0,0,0.1,0.1,0.3c0.8,3.7,2,7.2,3.5,10.6l4-1.8c-1.3-3-2.4-6-3.1-9.1
				c2.6,0,5.1,0,7.6,0.2l0.2-4.4C63.7,60.1,60.8,60,58,60c-0.2-3.4-0.3-8.2,1.6-11.2C61.9,45,65.4,46.1,66.8,49.9z"/>
			<path class="st12" d="M81,44.7c-5.1,0-8.3,4.7-9.6,9l4.2,1.2c0.4-1.3,0.9-2.5,1.6-3.4c2-3.1,5.4-2.8,6.9,0.2
				c0.8,1.7,0.9,3.9,0.9,5.6c-3.7-1.4-8-2-11.6-0.6c-5.4,2.2-5.5,8-1.3,11c1.7,1.2,3.8,1.8,5.8,2c3.1,0.3,5.9-0.2,8.6-1.1l2.7,0.3
				C89.4,62.1,92.1,44.7,81,44.7z M85.1,64.3c-2.1,0.7-4.2,1.1-6.3,1c-5.1-0.4-7-5-0.7-5c2.5-0.1,4.8,0.7,7.1,1.7
				C85.1,62.9,85.1,63.6,85.1,64.3z"/>
			<path class="st12" d="M93.3,50.4C92,56.8,91.9,63.5,92.8,70l4.4-0.4c-0.8-6.2-0.8-12.4,0.4-18.6L93.3,50.4z"/>
			<polygon class="st12" points="93.8,48.2 98.2,48.8 99,44.2 94.6,43.7 			"/>
			<path class="st12" d="M113.3,56c-2.2-0.8-4.5-1.1-6.6-1.9c-4.3-1.6-2.3-4.4,1.5-4.1c2,0.1,4,1.1,5.3,2.3l3.1-3.2
				c-2.8-2.3-6.1-3.7-9.5-3.6c-3.2,0.2-6.2,1.7-7.1,5c-0.7,2.4,0.5,4.7,2.3,6.2c2.5,2.2,6.1,2.5,9,3.4c1.8,0.7,2.8,1.6,2.5,2.7
				c-0.5,2.4-4.3,3.2-6.2,2.6c-1.5-0.4-2.8-1.7-3.4-3.1l-4.1,1.8c1.1,2.5,3.5,4.6,6.2,5.5c2.8,0.8,5.9,0.5,8.4-1.1
				c1.1-0.8,2.3-1.9,3-3.4C119.6,60.9,117,57.4,113.3,56z"/>
		</g>
	</g>
	<g>
		<path class="st11" d="M85.7,78.7c0.6,0,1.1,0.1,1.5,0.2c0.4,0.1,0.7,0.3,1,0.6c0.2,0.3,0.4,0.6,0.5,0.9s0.2,0.8,0.2,1.2v4.3
			c-0.3,0.1-0.7,0.1-1.2,0.2s-1.2,0.1-1.9,0.1c-0.5,0-0.9,0-1.3-0.1s-0.7-0.2-1-0.4c-0.3-0.2-0.5-0.4-0.6-0.7
			c-0.1-0.3-0.2-0.7-0.2-1.1c0-0.4,0.1-0.8,0.3-1.1c0.2-0.3,0.4-0.5,0.7-0.7c0.3-0.2,0.6-0.3,1-0.4c0.4-0.1,0.7-0.1,1.1-0.1
			c0.3,0,0.5,0,0.7,0c0.2,0,0.4,0.1,0.5,0.1v-0.2c0-0.3-0.1-0.6-0.3-0.8c-0.2-0.2-0.6-0.3-1.1-0.3c-0.3,0-0.7,0-1,0.1
			c-0.3,0.1-0.6,0.1-0.9,0.2l-0.3-1.6c0.1,0,0.3-0.1,0.4-0.1c0.2,0,0.4-0.1,0.6-0.1c0.2,0,0.4-0.1,0.7-0.1
			C85.3,78.8,85.5,78.7,85.7,78.7z M85.9,84.7c0.2,0,0.4,0,0.6,0c0.2,0,0.3,0,0.4,0v-1.6c-0.1,0-0.2,0-0.4-0.1c-0.2,0-0.3,0-0.5,0
			c-0.2,0-0.4,0-0.5,0c-0.2,0-0.3,0.1-0.4,0.1c-0.1,0.1-0.2,0.2-0.3,0.3c-0.1,0.1-0.1,0.2-0.1,0.4c0,0.3,0.1,0.5,0.3,0.7
			C85.2,84.7,85.5,84.7,85.9,84.7z"/>
		<path class="st11" d="M92.5,86.2c-0.5-0.9-0.9-2-1.4-3.2c-0.5-1.2-0.9-2.6-1.4-4h2.2c0.1,0.4,0.2,0.7,0.3,1.2
			c0.1,0.4,0.3,0.8,0.4,1.3c0.1,0.4,0.3,0.8,0.4,1.2c0.1,0.4,0.3,0.8,0.4,1.1c0.1-0.3,0.2-0.7,0.4-1.1c0.1-0.4,0.3-0.8,0.4-1.2
			c0.1-0.4,0.3-0.8,0.4-1.3c0.1-0.4,0.2-0.8,0.3-1.2H97c-0.4,1.4-0.9,2.8-1.4,4c-0.5,1.2-1,2.3-1.4,3.2H92.5z"/>
		<path class="st11" d="M97.6,82.6c0-0.6,0.1-1.2,0.3-1.7c0.2-0.5,0.5-0.9,0.8-1.2s0.7-0.6,1.1-0.7c0.4-0.2,0.8-0.2,1.3-0.2
			c1,0,1.8,0.3,2.4,0.9s0.9,1.5,0.9,2.8c0,0.1,0,0.2,0,0.4c0,0.1,0,0.3,0,0.4h-4.6c0,0.4,0.2,0.8,0.6,1s0.8,0.4,1.4,0.4
			c0.4,0,0.7,0,1.1-0.1c0.4-0.1,0.7-0.2,0.9-0.3l0.3,1.7c-0.1,0.1-0.3,0.1-0.4,0.2c-0.2,0.1-0.4,0.1-0.6,0.1c-0.2,0-0.5,0.1-0.7,0.1
			c-0.3,0-0.5,0-0.8,0c-0.7,0-1.2-0.1-1.7-0.3c-0.5-0.2-0.9-0.5-1.2-0.8c-0.3-0.3-0.5-0.7-0.7-1.2C97.6,83.6,97.6,83.1,97.6,82.6z
			 M102.4,81.8c0-0.2,0-0.3-0.1-0.5c0-0.2-0.1-0.3-0.2-0.4c-0.1-0.1-0.2-0.2-0.4-0.3c-0.2-0.1-0.4-0.1-0.6-0.1c-0.2,0-0.4,0-0.6,0.1
			c-0.2,0.1-0.3,0.2-0.4,0.3c-0.1,0.1-0.2,0.3-0.3,0.4c-0.1,0.2-0.1,0.3-0.1,0.5H102.4z"/>
		<path class="st11" d="M105.6,82.5c0-0.5,0.1-1,0.3-1.5c0.2-0.5,0.4-0.9,0.7-1.2c0.3-0.3,0.7-0.6,1.2-0.8c0.5-0.2,1-0.3,1.6-0.3
			c0.4,0,0.7,0,1.1,0.1c0.3,0.1,0.6,0.2,0.9,0.3l-0.4,1.6c-0.2-0.1-0.4-0.1-0.6-0.2c-0.2-0.1-0.5-0.1-0.8-0.1
			c-0.6,0-1.1,0.2-1.4,0.6c-0.3,0.4-0.4,0.9-0.4,1.5c0,0.7,0.1,1.2,0.4,1.5c0.3,0.4,0.8,0.5,1.5,0.5c0.2,0,0.5,0,0.8-0.1
			c0.3,0,0.5-0.1,0.8-0.2l0.3,1.7c-0.2,0.1-0.5,0.2-0.9,0.3c-0.4,0.1-0.8,0.1-1.2,0.1c-0.7,0-1.2-0.1-1.7-0.3
			c-0.5-0.2-0.9-0.5-1.2-0.8c-0.3-0.3-0.5-0.7-0.7-1.2C105.7,83.6,105.6,83.1,105.6,82.5z"/>
	</g>
	<g>
		<circle class="st13" cx="11.5" cy="87.9" r="4.1"/>
		<path class="st11" d="M19.2,80.7c0-0.6,0.5-1,1-0.9c4,0.5,7.1,3.9,7.1,8.1s-3.1,7.6-7.1,8.1c-0.5,0.1-1-0.4-1-0.9V80.7z"/>
		<path class="st11" d="M6.6,108.1h18.6c0.6,0,1.1-0.5,1.1-1.1v-6.2c0-0.6-0.5-1.1-1.1-1.1H15C10.4,99.7,6.6,103.5,6.6,108.1
			L6.6,108.1z"/>
		<path class="st11" d="M36.9,108.1h-2.8c-0.3,0-0.5-0.2-0.5-0.5V88.1c0-0.3,0.2-0.5,0.5-0.5h2.8c0.5,0,1,0.4,1,1v18.7
			C37.8,107.7,37.4,108.1,36.9,108.1z"/>
		<path class="st11" d="M53.6,108L53.6,108l0-16.3h0c-2.4,0-4.4,2-4.4,4.4v7.5C49.2,106,51.2,108,53.6,108z"/>
		<path class="st11" d="M56.8,108L56.8,108c2.4,0,4.4-2,4.4-4.4v-7.5c0-2.4-2-4.4-4.4-4.4h0V108z"/>
		<path class="st11" d="M65.6,108h4.4V91.7h-0.6c-2.1,0-3.8,1.7-3.8,3.8V108z"/>
		<path class="st11" d="M72.7,108h4.4V96c0-2.4-1.9-4.3-4.3-4.3h-0.1V108z"/>
		<path class="st11" d="M81.3,108h4.4V91.7h-0.5c-2.1,0-3.9,1.7-3.9,3.9V108z"/>
		<path class="st11" d="M88.9,108h4.4V96.1c0-2.4-1.9-4.3-4.3-4.3h-0.1V108z"/>
		<path class="st11" d="M101.6,108h0.2V91.7h-0.2c-2.3,0-4.2,1.9-4.2,4.2v7.9C97.4,106.1,99.3,108,101.6,108z"/>
		<path class="st11" d="M104.9,91.9c0-0.3,0.2-0.5,0.5-0.5c2.1,0.3,3.7,2.1,3.7,4.2c0,2.2-1.6,4-3.7,4.2c-0.3,0-0.5-0.2-0.5-0.5
			V91.9z"/>
		<path class="st11" d="M120.8,100.3c0-0.3,0.3-0.5,0.6-0.5c2.1,0.3,3.7,2.1,3.7,4.2s-1.6,3.9-3.7,4.2c-0.3,0-0.6-0.2-0.6-0.5V100.3
			z"/>
		<path class="st11" d="M117.8,92c0-0.3-0.3-0.6-0.6-0.6c-2.1,0.3-3.6,2.1-3.6,4.2c0,2.1,1.6,3.9,3.6,4.2c0.3,0,0.6-0.2,0.6-0.6V92z
			"/>
		<path class="st11" d="M109,104.3c-0.2,2-1.8,3.6-3.8,3.8c-0.2,0-0.3-0.1-0.3-0.3v-3.4c0-0.2,0.2-0.4,0.5-0.4l3.4,0.1
			C108.9,104,109,104.1,109,104.3z"/>
		<path class="st11" d="M45,92.1c-0.2,2-1.8,3.6-3.8,3.8c-0.2,0-0.3-0.1-0.3-0.3v-3.4c0-0.2,0.2-0.4,0.5-0.4l3.4,0.1
			C44.9,91.7,45,91.9,45,92.1z"/>
		<path class="st11" d="M121.2,91.8c2,0.2,3.6,1.8,3.8,3.8c0,0.2-0.1,0.3-0.3,0.3h-3.4c-0.2,0-0.4-0.2-0.4-0.5l0.1-3.4
			C120.9,91.9,121,91.8,121.2,91.8z"/>
		<circle class="st13" cx="115.6" cy="106" r="2.2"/>
	</g>
</g>
</svg>
