<?xml version="1.0" encoding="utf-8"?>
<!-- Generator: Adobe Illustrator 28.0.0, SVG Export Plug-In . SVG Version: 6.00 Build 0)  -->
<svg version="1.1" id="Calque_1" xmlns="http://www.w3.org/2000/svg" xmlns:xlink="http://www.w3.org/1999/xlink" x="0px" y="0px"
	 viewBox="0 0 220.4 123.7" style="enable-background:new 0 0 220.4 123.7;" xml:space="preserve">
<style type="text/css">
	.st0{fill:#6B9868;}
	.st1{fill:#646DB2;}
	.st2{clip-path:url(#SVGID_00000126325688264432799920000008827063563925938610_);fill:#F2B998;}
	.st3{clip-path:url(#SVGID_00000126325688264432799920000008827063563925938610_);fill:#5B5373;}
	.st4{clip-path:url(#SVGID_00000126325688264432799920000008827063563925938610_);fill:#F2C029;}
	.st5{clip-path:url(#SVGID_00000111181130122885544840000017072793770949410738_);fill:#F2C029;}
	.st6{clip-path:url(#SVGID_00000111181130122885544840000017072793770949410738_);fill:#5B5373;}
	.st7{clip-path:url(#SVGID_00000111181130122885544840000017072793770949410738_);fill:#F2B998;}
	.st8{clip-path:url(#SVGID_00000111181130122885544840000017072793770949410738_);fill:#646DB2;}
	.st9{clip-path:url(#SVGID_00000111181130122885544840000017072793770949410738_);fill:#F2DB6C;}
	.st10{fill:#FFFFFF;}
</style>
<g>
	<g>
		<path class="st0" d="M70.3-107.3c-16.1-7-25.1-11.4-32.4,4.1C30.6-87.6,40-68.5,56.6-67.7c16.6,0.8,26.4-5.4,26.7-11.9
			C83.2-79.6,86.3-100.3,70.3-107.3z M47.2-82.4c-1.7-7,0.3-17,1.6-23.6l3.9,0.6c-1.3,6.7-2.6,13.3-2.1,19.7
			c0.3,3.7,1.7,7.3,5.3,3.5l1.4,3.3C52.1-73.7,48.1-78.2,47.2-82.4z M61.5-79.8c-3.9-4.5-2-12.2,3.6-14.6c3.2-1.4,7.3-1.4,8.5,2.5
			c0.5,1.8,0.1,4-1.6,5.4c-2.2,1.9-5.7,2.3-8.5,1.9c0.6,3.8,4.7,4.5,8.3,2l2.5,3C70.8-76.6,64.8-75.9,61.5-79.8z"/>
		<path class="st0" d="M67.4-88.5c3.6-0.8,2.3-3-0.1-2.5c-1.5,0.3-2.5,1.3-3.3,2.6C65.1-88.2,66.3-88.2,67.4-88.5z"/>
		<path class="st0" d="M182.2-157.5c-19.5-0.5-22.9,16.9-21.8,33.4s18.3,16.6,27.7,12.6c9.5-4.1,20.8-14.9,20.8-27.2
			C208.9-151.1,201.7-157,182.2-157.5z M180-150.1c0.4,1.3,0.7,2.5,1,3.8l-3.9,0.8c-0.3-1.2-0.5-2.3-0.9-3.4L180-150.1z
			 M182.8-121.8c-1.3,2.7-3.5,5.1-6.3,5.8c-3.6,0.9-6.2-0.7-7.7-3.2c-1-1.6-1.4-3.6-1.4-5.5c0.1-3.8,2.4-7,5.7-9.1l1.9,3.5
			c-1.3,0.8-2.5,2-3.1,3.4c-0.9,2.1-1.1,6.3,2,6.9c2,0.4,4.3-1.4,5.2-3.4c2.7-5.8,0.6-15.8-0.6-18.5l3.8-1.4
			C184-137.4,185.8-128.3,182.8-121.8z M188.7-129.4c-3.9-4.5-2-12.2,3.6-14.6c3.2-1.4,7.3-1.4,8.5,2.5c0.5,1.8,0.1,4-1.6,5.4
			c-2.2,1.9-5.7,2.3-8.5,1.9c0.6,3.8,4.7,4.5,8.3,2l2.5,3C198.1-126.2,192-125.5,188.7-129.4z"/>
		<path class="st0" d="M194.6-138.1c3.6-0.8,2.3-3-0.1-2.5c-1.5,0.3-2.5,1.3-3.3,2.6C192.3-137.9,193.5-137.9,194.6-138.1z"/>
		<path class="st1" d="M39.5-126.5c2-3,2.7-6.9,3.2-10.3c1.5-10.4,1-22.8-0.2-31.2l-0.3,0.1v-0.1l-22.3,0.3l0.1,6.2l16.5-0.4
			c0.8,5.8,1.3,16-0.3,24.7c-3.2,18.6-21.8,14.7-17.4-4.3c0.8-3.4,2.2-6.7,3.5-10.3l-6.1-2.2c-4.1,9.6-7.7,20.8-0.7,29.8
			C21.3-116.9,32.6-116.2,39.5-126.5z"/>
		<path class="st1" d="M71.7-123.9l-4.2-5c-6,4.3-12.8,3-13.8-3.3c4.6,0.7,10.5-0.1,14.2-3.2c2.9-2.4,3.6-6,2.7-9.1
			c-2-6.6-8.8-6.6-14.2-4.3c-9.3,4.1-12.6,16.9-6,24.4C55.9-117.8,66-119,71.7-123.9z M60.1-143.1c4-0.8,6.2,2.9,0.1,4.2
			c-1.9,0.4-3.9,0.4-5.7,0.2C55.9-140.9,57.6-142.6,60.1-143.1z"/>
		<path class="st1" d="M98.2-126.1c0.3,1.8,0.7,4.5,1.4,6.3l6.4-1.6c-2.8-10.7-1.5-20.8-0.4-30.9l-6.7-0.6
			c-0.6,5.4-1.3,10.8-1.4,16.3c0,0.2,0,0.2,0,0.3c-4.1,10.2-13.8,13.9-16,3.8c-1.1-5.3-0.4-11,0.8-16l-6.6-1.1
			c-1.3,6.7-2,13.5-0.4,19.5C78.1-119.4,90.9-116.8,98.2-126.1z"/>
		<path class="st1" d="M128.5-122.5c0.9,4.6,2.1,8.9,3.7,13.4l6.3-2.3c-3.8-10.9-5.5-20.9-5.5-31c6.2-3.9,11-13.3,10.4-19
			c-0.9-9.7-9.8-8.8-13.6-1.5c-3.2,6-3.6,13.5-3.6,19.8c-5.9-2.5-11.5-0.3-14.9,4.1c-3.6,4.9-3.2,12.4,0.6,16.6
			C116.6-117.5,124.2-119.1,128.5-122.5z M134.1-153.6c0.4-2.6,1.2-5,2.3-7.2c0.4-0.6,0.6-0.4,0.6,0.1c0,3.8-1.1,7.5-3.4,10.2
			C133.7-151.5,133.9-152.6,134.1-153.6z M120.2-137.6c2.2-0.4,4.8,0.6,6.6,3.4c0.1,1.3,0.3,2.7,0.4,4c-1.1,1.8-3.6,4.1-6.2,4.6
			C113.9-124.4,113.7-136.3,120.2-137.6z"/>
		<path class="st1" d="M155.4-146.8l-6.5-0.9c-1.8,9.6-2.1,19.5-0.6,29.3l6.6-0.6C153.6-128.2,153.7-137.6,155.4-146.8z"/>
		<polygon class="st1" points="157.3,-156.9 150.8,-157.6 149.6,-150.9 156.2,-150 		"/>
		<path class="st1" d="M111.4-95.9l6.2-2.2c-0.4-1.6-1.1-3-2.1-4.4c-5.7-7.9-15.4-6.3-20.2,1.2c-3.7,5.9-4.1,14-3.7,20.7
			c-1.1,0-2.2,0.1-3.2,0.2l0.3,6.5c1.3,0,2.5-0.1,3.9-0.1c0,0.1,0,0.2,0.1,0.4c1.1,5.5,3,10.8,5.2,15.8l6-2.7
			c-1.9-4.5-3.6-8.9-4.6-13.6c3.9,0,7.6,0.1,11.4,0.3l0.3-6.6c-4.3-0.2-8.5-0.3-12.8-0.3c-0.3-5-0.4-12.2,2.3-16.8
			C104.1-103.4,109.3-101.7,111.4-95.9z"/>
		<path class="st1" d="M132.6-103.7c-7.6,0-12.4,7-14.3,13.4l6.3,1.8c0.6-2,1.4-3.7,2.3-5.1c2.9-4.6,8.1-4.3,10.3,0.3
			c1.2,2.6,1.4,5.8,1.4,8.4c-5.5-2-11.9-3-17.3-0.8c-8.1,3.2-8.2,11.9-2,16.4c2.5,1.8,5.6,2.7,8.6,2.9c4.6,0.4,8.8-0.3,12.8-1.7
			l4.1,0.4C145.1-77.8,149.2-103.7,132.6-103.7z M138.7-74.4c-3.2,1-6.3,1.7-9.4,1.5c-7.6-0.6-10.5-7.4-1-7.4
			c3.8-0.1,7.2,1,10.5,2.6C138.8-76.6,138.8-75.5,138.7-74.4z"/>
		<path class="st1" d="M150.9-95.3c-1.8,9.6-2.1,19.5-0.6,29.3l6.6-0.6c-1.2-9.2-1.1-18.6,0.6-27.7L150.9-95.3z"/>
		<polygon class="st1" points="151.7,-98.5 158.3,-97.6 159.4,-104.5 152.9,-105.2 		"/>
		<path class="st1" d="M180.9-86.9c-3.2-1.2-6.8-1.6-9.9-2.9c-6.5-2.4-3.4-6.5,2.2-6.2c3,0.2,6,1.6,7.9,3.4l4.7-4.8
			c-4.1-3.4-9.1-5.6-14.2-5.3c-4.8,0.3-9.3,2.5-10.7,7.4c-1.1,3.6,0.8,7,3.4,9.3c3.7,3.2,9.1,3.7,13.5,5.1c2.7,1,4.1,2.4,3.8,4
			c-0.7,3.6-6.4,4.8-9.3,3.9c-2.2-0.6-4.2-2.6-5.1-4.6l-6.1,2.7c1.7,3.8,5.2,6.9,9.2,8.2c4.3,1.3,8.8,0.7,12.5-1.7
			c1.7-1.1,3.4-2.8,4.5-5C190.2-79.6,186.4-84.8,180.9-86.9z"/>
	</g>
</g>
<g>
	<path d="M-96.7-284.2c0,0,3.5-23.2-14.5-31c-17.9-7.8-28.1-12.7-36.2,4.6c-8.1,17.4,2.3,38.8,20.8,39.7
		C-108-270-97-276.9-96.7-284.2z"/>
	<path d="M20.4-319.9c-10.5,4.5-29.8,4.3-31-14.1s2.6-37.9,24.4-37.3s29.8,7.2,29.8,20.9C43.6-336.5,31-324.4,20.4-319.9z"/>
	<text transform="matrix(1 0 0 1 -178.3657 -328.3227)" style="font-family:'Cheese-Sauce'; font-size:70.914px;">Jeudi</text>
	<g>
		<text transform="matrix(1 0 0 1 -92.5276 -269.764)" style="font-family:'Cheese-Sauce'; font-size:70.914px;">fais</text>
	</g>
	<g>
		<text transform="matrix(1 0 0 1 -3.6493 -336.3499)" class="st10" style="font-family:'Cheese-Sauce'; font-size:42.4382px;">je</text>
	</g>
	<g>
		<text transform="matrix(1 0 0 1 -139.2937 -280.8957)" class="st10" style="font-family:'Cheese-Sauce'; font-size:42.4382px;">le</text>
	</g>
</g>
<circle cx="170.1" cy="-375.4" r="27.9"/>
<circle cx="324.6" cy="-432.9" r="27.9"/>
<text transform="matrix(1 0 0 1 115.1827 -404.9027)" style="font-family:'Cheese-Sauce'; font-size:70.914px;">Jeudi</text>
<g>
	<text transform="matrix(1 0 0 1 201.0208 -346.344)" style="font-family:'Cheese-Sauce'; font-size:70.914px;">fais</text>
</g>
<g>
	<text transform="matrix(1 0 0 1 303.9 -424.9307)" class="st10" style="font-family:'Cheese-Sauce'; font-size:42.4382px;">je</text>
</g>
<g>
	<text transform="matrix(1 0 0 1 155.2547 -361.476)" class="st10" style="font-family:'Cheese-Sauce'; font-size:42.4382px;">le</text>
</g>
<g id="ks2nav_00000116200453433236937000000011695736334048347014_">
	
		<image style="overflow:visible;" width="2180" height="883" id="ks2nav" xlink:href="4F7D1605646857E4.png"  transform="matrix(1 0 0 1 -985.5283 1963.0265)">
	</image>
</g>
<g>
	<defs>
		<rect id="SVGID_1_" x="-987.4" y="921" width="2183.9" height="884.6"/>
	</defs>
	<clipPath id="SVGID_00000166674130597140520560000009647727018524271016_">
		<use xlink:href="#SVGID_1_"  style="overflow:visible;"/>
	</clipPath>
	<path style="clip-path:url(#SVGID_00000166674130597140520560000009647727018524271016_);fill:#F2B998;" d="M-1202.7,1556.4
		c0,0,82.4-398,947.1-271.8s1199.6,293.7,1603.1,98.8c0-428.2,0-463.9,0-463.9h-2528.2L-1202.7,1556.4z"/>
	<path style="clip-path:url(#SVGID_00000166674130597140520560000009647727018524271016_);fill:#5B5373;" d="M-1120.3,1309.3
		c0,0,529.8-145.5,903.1-52.2S894.6,1825.4,957.7,1927c-612.2,0-2034.1,0-2034.1,0L-1120.3,1309.3z"/>
	<path style="clip-path:url(#SVGID_00000166674130597140520560000009647727018524271016_);fill:#F2C029;" d="M1265.2,1188.6
		c0,0-1238,52.2-1295.7,131.8c277.3,145.5,1021.2,661.6,1021.2,661.6l340.4-22L1265.2,1188.6z"/>
</g>
<g>
	<defs>
		<rect id="SVGID_00000017492979872300162840000015951667277451069875_" x="930.8" y="-198.2" width="2183.9" height="884.6"/>
	</defs>
	<clipPath id="SVGID_00000006668394665108824400000015880818392898617021_">
		<use xlink:href="#SVGID_00000017492979872300162840000015951667277451069875_"  style="overflow:visible;"/>
	</clipPath>
	<path style="clip-path:url(#SVGID_00000006668394665108824400000015880818392898617021_);fill:#F2C029;" d="M817.9,465.9
		c0,0,306.5,110.7,510-226.6S1812.1,38.4,2013-154.8s-628.4-342.5-628.4-342.5L514-353.1L817.9,465.9z"/>
	<path style="clip-path:url(#SVGID_00000006668394665108824400000015880818392898617021_);fill:#5B5373;" d="M872,182.6
		c0,0,391.5,244.7,790.7,164.8s502.2,2.6,826.7,133.9s744.3-200.9,855.1-206c110.7-5.2-43.8,481.6-43.8,481.6l-2487.9-7.7L872,182.6
		z"/>
	<path style="clip-path:url(#SVGID_00000006668394665108824400000015880818392898617021_);fill:#F2B998;" d="M1451.5-530.8
		c0,0,296.2,690.2,883.4,610.4s762.4,708.3,762.4,708.3h285.9v-1159L1451.5-530.8z"/>
	<path style="clip-path:url(#SVGID_00000006668394665108824400000015880818392898617021_);fill:#646DB2;" d="M1343.1,437.2
		c-102.1-141.7-194.5-98.4-116.2-221.3s418-395.7,605.8-313s261.5,498.5,69.3,516.4C1709.7,437.2,1492.9,645.1,1343.1,437.2z"/>
	<path style="clip-path:url(#SVGID_00000006668394665108824400000015880818392898617021_);fill:#F2DB6C;" d="M1971.2-23.3
		c0,0-84.9-15.6-64.8,163.2c20.1,178.8-60.4,321.9,252.6,328.6s424.7-67.1,424.7-190S2456.3-425.7,1971.2-23.3z"/>
	<path style="clip-path:url(#SVGID_00000006668394665108824400000015880818392898617021_);fill:#646DB2;" d="M3191.8,519.9
		c0,0-283.9,105.1-507.5,73.8s-344.3-89.4-330.8-241.4S2311-34.5,2612.8,52.7S3185.1,291.9,3191.8,519.9z"/>
</g>
<g>
	<g>
		<path class="st10" d="M-852.9,1076.5c-16.1-7-25.1-11.4-32.4,4.1s2.1,34.7,18.7,35.5c16.6,0.8,26.4-5.4,26.7-11.9
			C-839.9,1104.2-836.8,1083.5-852.9,1076.5z M-876,1101.4c-1.7-7,0.3-17,1.6-23.6l3.9,0.6c-1.3,6.7-2.6,13.3-2.1,19.7
			c0.3,3.7,1.7,7.3,5.3,3.5l1.4,3.3C-871.1,1110-875,1105.6-876,1101.4z M-861.7,1104c-3.9-4.5-2-12.2,3.6-14.6
			c3.2-1.4,7.3-1.4,8.5,2.5c0.5,1.8,0.1,4-1.6,5.4c-2.2,1.9-5.7,2.3-8.5,1.9c0.6,3.8,4.7,4.5,8.3,2l2.5,3
			C-852.3,1107.2-858.4,1107.9-861.7,1104z"/>
		<path class="st10" d="M-855.8,1095.3c3.6-0.8,2.3-3-0.1-2.5c-1.5,0.3-2.5,1.3-3.3,2.6C-858.1,1095.5-856.9,1095.5-855.8,1095.3z"
			/>
		<path class="st10" d="M-741,1026.3c-19.5-0.5-22.9,16.9-21.8,33.4s18.3,16.6,27.7,12.6c9.5-4.1,20.8-14.9,20.8-27.2
			C-714.3,1032.7-721.5,1026.8-741,1026.3z M-743.2,1033.7c0.4,1.3,0.7,2.5,1,3.8l-3.9,0.8c-0.3-1.2-0.5-2.3-0.9-3.4L-743.2,1033.7z
			 M-740.4,1062c-1.3,2.7-3.5,5.1-6.3,5.8c-3.6,0.9-6.2-0.7-7.7-3.2c-1-1.6-1.4-3.6-1.4-5.5c0.1-3.8,2.4-7,5.7-9.1l1.9,3.5
			c-1.3,0.8-2.5,2-3.1,3.4c-0.9,2.1-1.1,6.3,2,6.9c2,0.4,4.3-1.4,5.2-3.4c2.7-5.8,0.6-15.8-0.6-18.5l3.8-1.4
			C-739.2,1046.4-737.4,1055.4-740.4,1062z M-734.5,1054.4c-3.9-4.5-2-12.2,3.6-14.6c3.2-1.4,7.3-1.4,8.5,2.5c0.5,1.8,0.1,4-1.6,5.4
			c-2.2,1.9-5.7,2.3-8.5,1.9c0.6,3.8,4.7,4.5,8.3,2l2.5,3C-725.1,1057.6-731.2,1058.2-734.5,1054.4z"/>
		<path class="st10" d="M-728.6,1045.6c3.6-0.8,2.3-3-0.1-2.5c-1.5,0.3-2.5,1.3-3.3,2.6C-730.9,1045.9-729.7,1045.9-728.6,1045.6z"
			/>
		<path class="st1" d="M-883.7,1057.2c2-3,2.7-6.9,3.2-10.3c1.5-10.4,1-22.8-0.2-31.2l-0.3,0.1v-0.1l-22.3,0.3l0.1,6.2l16.5-0.4
			c0.8,5.8,1.3,16-0.3,24.7c-3.2,18.6-21.8,14.7-17.4-4.3c0.8-3.4,2.2-6.7,3.5-10.3l-6.1-2.2c-4.1,9.6-7.7,20.8-0.7,29.8
			C-901.8,1066.8-890.6,1067.6-883.7,1057.2z"/>
		<path class="st1" d="M-851.5,1059.8l-4.2-5c-6,4.3-12.8,3-13.8-3.3c4.6,0.7,10.5-0.1,14.2-3.2c2.9-2.4,3.6-6,2.7-9.1
			c-2-6.6-8.8-6.6-14.2-4.3c-9.3,4.1-12.6,16.9-6,24.4C-867.3,1065.9-857.2,1064.8-851.5,1059.8z M-863.1,1040.7
			c4-0.8,6.2,2.9,0.1,4.2c-1.9,0.4-3.9,0.4-5.7,0.2C-867.3,1042.9-865.5,1041.2-863.1,1040.7z"/>
		<path class="st1" d="M-825,1057.7c0.3,1.8,0.7,4.5,1.4,6.3l6.4-1.6c-2.8-10.7-1.5-20.8-0.4-30.9l-6.7-0.6
			c-0.6,5.4-1.3,10.8-1.4,16.3c0,0.2,0,0.2,0,0.3c-4.1,10.2-13.8,13.9-16,3.8c-1.1-5.3-0.4-11,0.8-16l-6.6-1.1
			c-1.3,6.7-2,13.5-0.4,19.5C-845.1,1064.4-832.3,1067-825,1057.7z"/>
		<path class="st1" d="M-794.6,1061.2c0.9,4.6,2.1,8.9,3.7,13.4l6.3-2.3c-3.8-10.9-5.5-20.9-5.5-31c6.2-3.9,11-13.3,10.4-19
			c-0.9-9.7-9.8-8.8-13.6-1.5c-3.2,6-3.6,13.5-3.6,19.8c-5.9-2.5-11.5-0.3-14.9,4.1c-3.6,4.9-3.2,12.4,0.6,16.6
			C-806.6,1066.3-799,1064.7-794.6,1061.2z M-789.1,1030.2c0.4-2.6,1.2-5,2.3-7.2c0.4-0.6,0.6-0.4,0.6,0.1c0,3.8-1.1,7.5-3.4,10.2
			C-789.4,1032.2-789.3,1031.2-789.1,1030.2z M-803,1046.2c2.2-0.4,4.8,0.6,6.6,3.4c0.1,1.3,0.3,2.7,0.4,4c-1.1,1.8-3.6,4.1-6.2,4.6
			C-809.2,1059.4-809.4,1047.5-803,1046.2z"/>
		<path class="st1" d="M-767.8,1037l-6.5-0.9c-1.8,9.6-2.1,19.5-0.6,29.3l6.6-0.6C-769.6,1055.5-769.5,1046.1-767.8,1037z"/>
		<polygon class="st1" points="-765.8,1026.9 -772.4,1026.2 -773.6,1032.9 -767,1033.8 		"/>
		<path class="st1" d="M-811.8,1087.8l6.2-2.2c-0.4-1.6-1.1-3-2.1-4.4c-5.7-7.9-15.4-6.3-20.2,1.2c-3.7,5.9-4.1,14-3.7,20.7
			c-1.1,0-2.2,0.1-3.2,0.2l0.3,6.5c1.3,0,2.5-0.1,3.9-0.1c0,0.1,0,0.2,0.1,0.4c1.1,5.5,3,10.8,5.2,15.8l6-2.7
			c-1.9-4.5-3.6-8.9-4.6-13.6c3.9,0,7.6,0.1,11.4,0.3l0.3-6.6c-4.3-0.2-8.5-0.3-12.8-0.3c-0.3-5-0.4-12.2,2.3-16.8
			C-819.1,1080.4-813.9,1082.1-811.8,1087.8z"/>
		<path class="st1" d="M-790.6,1080.1c-7.6,0-12.4,7-14.3,13.4l6.3,1.8c0.6-2,1.4-3.7,2.3-5.1c2.9-4.6,8.1-4.3,10.3,0.3
			c1.2,2.6,1.4,5.8,1.4,8.4c-5.5-2-11.9-3-17.3-0.8c-8.1,3.2-8.2,11.9-2,16.4c2.5,1.8,5.6,2.7,8.6,2.9c4.6,0.4,8.8-0.3,12.8-1.7
			l4.1,0.4C-778.1,1106-774,1080.1-790.6,1080.1z M-784.5,1109.3c-3.2,1-6.3,1.7-9.4,1.5c-7.6-0.6-10.5-7.4-1-7.4
			c3.8-0.1,7.2,1,10.5,2.6C-784.4,1107.2-784.4,1108.3-784.5,1109.3z"/>
		<path class="st1" d="M-772.3,1088.5c-1.8,9.6-2.1,19.5-0.6,29.3l6.6-0.6c-1.2-9.2-1.1-18.6,0.6-27.7L-772.3,1088.5z"/>
		<polygon class="st1" points="-771.5,1085.3 -764.9,1086.2 -763.8,1079.3 -770.3,1078.6 		"/>
		<path class="st1" d="M-742.3,1096.8c-3.2-1.2-6.8-1.6-9.9-2.9c-6.5-2.4-3.4-6.5,2.2-6.2c3,0.2,6,1.6,7.9,3.4l4.7-4.8
			c-4.1-3.4-9.1-5.6-14.2-5.3c-4.8,0.3-9.3,2.5-10.7,7.4c-1.1,3.6,0.8,7,3.4,9.3c3.7,3.2,9.1,3.7,13.5,5.1c2.7,1,4.1,2.4,3.8,4
			c-0.7,3.6-6.4,4.8-9.3,3.9c-2.2-0.6-4.2-2.6-5.1-4.6l-6.1,2.7c1.7,3.8,5.2,6.9,9.2,8.2c4.3,1.3,8.8,0.7,12.5-1.7
			c1.7-1.1,3.4-2.8,4.5-5C-733,1104.2-736.7,1098.9-742.3,1096.8z"/>
	</g>
</g>
<g>
	<g>
		<path class="st10" d="M70.3,67.7c-16.1-7-25.1-11.4-32.4,4.1c-7.3,15.5,2.1,34.7,18.7,35.5c16.6,0.8,26.4-5.4,26.7-11.9
			C83.2,95.4,86.3,74.7,70.3,67.7z M47.2,92.7c-1.7-7,0.3-17,1.6-23.6l3.9,0.6c-1.3,6.7-2.6,13.3-2.1,19.7c0.3,3.7,1.7,7.3,5.3,3.5
			l1.4,3.3C52.1,101.3,48.1,96.9,47.2,92.7z M61.5,95.3c-3.9-4.5-2-12.2,3.6-14.6c3.2-1.4,7.3-1.4,8.5,2.5c0.5,1.8,0.1,4-1.6,5.4
			c-2.2,1.9-5.7,2.3-8.5,1.9c0.6,3.8,4.7,4.5,8.3,2l2.5,3C70.8,98.5,64.8,99.1,61.5,95.3z"/>
		<path class="st10" d="M67.4,86.5c3.6-0.8,2.3-3-0.1-2.5c-1.5,0.3-2.5,1.3-3.3,2.6C65.1,86.8,66.3,86.8,67.4,86.5z"/>
		<path class="st10" d="M182.2,17.5c-19.5-0.5-22.9,16.9-21.8,33.4s18.3,16.6,27.7,12.6c9.5-4.1,20.8-14.9,20.8-27.2
			C208.9,24,201.7,18.1,182.2,17.5z M180,24.9c0.4,1.3,0.7,2.5,1,3.8l-3.9,0.8c-0.3-1.2-0.5-2.3-0.9-3.4L180,24.9z M182.8,53.2
			c-1.3,2.7-3.5,5.1-6.3,5.8c-3.6,0.9-6.2-0.7-7.7-3.2c-1-1.6-1.4-3.6-1.4-5.5c0.1-3.8,2.4-7,5.7-9.1l1.9,3.5
			c-1.3,0.8-2.5,2-3.1,3.4c-0.9,2.1-1.1,6.3,2,6.9c2,0.4,4.3-1.4,5.2-3.4c2.7-5.8,0.6-15.8-0.6-18.5l3.8-1.4
			C184,37.6,185.8,46.7,182.8,53.2z M188.7,45.6c-3.9-4.5-2-12.2,3.6-14.6c3.2-1.4,7.3-1.4,8.5,2.5c0.5,1.8,0.1,4-1.6,5.4
			c-2.2,1.9-5.7,2.3-8.5,1.9c0.6,3.8,4.7,4.5,8.3,2l2.5,3C198.1,48.8,192,49.5,188.7,45.6z"/>
		<path class="st10" d="M194.6,36.9c3.6-0.8,2.3-3-0.1-2.5c-1.5,0.3-2.5,1.3-3.3,2.6C192.3,37.2,193.5,37.2,194.6,36.9z"/>
		<path class="st1" d="M39.5,48.5c2-3,2.7-6.9,3.2-10.3c1.5-10.4,1-22.8-0.2-31.2L42.3,7V6.9L19.9,7.3l0.1,6.2l16.5-0.4
			c0.8,5.8,1.3,16-0.3,24.7C33,56.4,14.4,52.4,18.9,33.5c0.8-3.4,2.2-6.7,3.5-10.3L16.3,21c-4.1,9.6-7.7,20.8-0.7,29.8
			C21.3,58.1,32.6,58.9,39.5,48.5z"/>
		<path class="st1" d="M71.7,51.1l-4.2-5c-6,4.3-12.8,3-13.8-3.3c4.6,0.7,10.5-0.1,14.2-3.2c2.9-2.4,3.6-6,2.7-9.1
			c-2-6.6-8.8-6.6-14.2-4.3c-9.3,4.1-12.6,16.9-6,24.4C55.9,57.2,66,56.1,71.7,51.1z M60.1,32c4-0.8,6.2,2.9,0.1,4.2
			c-1.9,0.4-3.9,0.4-5.7,0.2C55.9,34.2,57.6,32.5,60.1,32z"/>
		<path class="st1" d="M98.2,49c0.3,1.8,0.7,4.5,1.4,6.3l6.4-1.6c-2.8-10.7-1.5-20.8-0.4-30.9l-6.7-0.6c-0.6,5.4-1.3,10.8-1.4,16.3
			c0,0.2,0,0.2,0,0.3c-4.1,10.2-13.8,13.9-16,3.8c-1.1-5.3-0.4-11,0.8-16l-6.6-1.1c-1.3,6.7-2,13.5-0.4,19.5
			C78.1,55.7,90.9,58.3,98.2,49z"/>
		<path class="st1" d="M128.5,52.5c0.9,4.6,2.1,8.9,3.7,13.4l6.3-2.3c-3.8-10.9-5.5-20.9-5.5-31c6.2-3.9,11-13.3,10.4-19
			c-0.9-9.7-9.8-8.8-13.6-1.5c-3.2,6-3.6,13.5-3.6,19.8c-5.9-2.5-11.5-0.3-14.9,4.1c-3.6,4.9-3.2,12.4,0.6,16.6
			C116.6,57.6,124.2,55.9,128.5,52.5z M134.1,21.4c0.4-2.6,1.2-5,2.3-7.2c0.4-0.6,0.6-0.4,0.6,0.1c0,3.8-1.1,7.5-3.4,10.2
			C133.7,23.5,133.9,22.4,134.1,21.4z M120.2,37.5c2.2-0.4,4.8,0.6,6.6,3.4c0.1,1.3,0.3,2.7,0.4,4c-1.1,1.8-3.6,4.1-6.2,4.6
			C113.9,50.7,113.7,38.7,120.2,37.5z"/>
		<path class="st1" d="M155.4,28.3l-6.5-0.9c-1.8,9.6-2.1,19.5-0.6,29.3l6.6-0.6C153.6,46.8,153.7,37.4,155.4,28.3z"/>
		<polygon class="st1" points="157.3,18.2 150.8,17.4 149.6,24.1 156.2,25 		"/>
		<path class="st1" d="M111.4,79.1l6.2-2.2c-0.4-1.6-1.1-3-2.1-4.4c-5.7-7.9-15.4-6.3-20.2,1.2c-3.7,5.9-4.1,14-3.7,20.7
			c-1.1,0-2.2,0.1-3.2,0.2l0.3,6.5c1.3,0,2.5-0.1,3.9-0.1c0,0.1,0,0.2,0.1,0.4c1.1,5.5,3,10.8,5.2,15.8l6-2.7
			c-1.9-4.5-3.6-8.9-4.6-13.6c3.9,0,7.6,0.1,11.4,0.3l0.3-6.6c-4.3-0.2-8.5-0.3-12.8-0.3c-0.3-5-0.4-12.2,2.3-16.8
			C104.1,71.7,109.3,73.3,111.4,79.1z"/>
		<path class="st1" d="M132.6,71.4c-7.6,0-12.4,7-14.3,13.4l6.3,1.8c0.6-2,1.4-3.7,2.3-5.1c2.9-4.6,8.1-4.3,10.3,0.3
			c1.2,2.6,1.4,5.8,1.4,8.4c-5.5-2-11.9-3-17.3-0.8c-8.1,3.2-8.2,11.9-2,16.4c2.5,1.8,5.6,2.7,8.6,2.9c4.6,0.4,8.8-0.3,12.8-1.7
			l4.1,0.4C145.1,97.2,149.2,71.4,132.6,71.4z M138.7,100.6c-3.2,1-6.3,1.7-9.4,1.5c-7.6-0.6-10.5-7.4-1-7.4c3.8-0.1,7.2,1,10.5,2.6
			C138.8,98.4,138.8,99.5,138.7,100.6z"/>
		<path class="st1" d="M150.9,79.8c-1.8,9.6-2.1,19.5-0.6,29.3l6.6-0.6c-1.2-9.2-1.1-18.6,0.6-27.7L150.9,79.8z"/>
		<polygon class="st1" points="151.7,76.6 158.3,77.4 159.4,70.6 152.9,69.8 		"/>
		<path class="st1" d="M180.9,88.1c-3.2-1.2-6.8-1.6-9.9-2.9c-6.5-2.4-3.4-6.5,2.2-6.2c3,0.2,6,1.6,7.9,3.4l4.7-4.8
			c-4.1-3.4-9.1-5.6-14.2-5.3c-4.8,0.3-9.3,2.5-10.7,7.4c-1.1,3.6,0.8,7,3.4,9.3c3.7,3.2,9.1,3.7,13.5,5.1c2.7,1,4.1,2.4,3.8,4
			c-0.7,3.6-6.4,4.8-9.3,3.9c-2.2-0.6-4.2-2.6-5.1-4.6l-6.1,2.7c1.7,3.8,5.2,6.9,9.2,8.2c4.3,1.3,8.8,0.7,12.5-1.7
			c1.7-1.1,3.4-2.8,4.5-5C190.2,95.5,186.4,90.2,180.9,88.1z"/>
	</g>
</g>
</svg>
